<?xml version="1.0" encoding="utf-8"?>
<!-- Generator: Adobe Illustrator 28.0.0, SVG Export Plug-In . SVG Version: 6.00 Build 0)  -->
<svg version="1.0" id="Warstwa_1" xmlns="http://www.w3.org/2000/svg" xmlns:xlink="http://www.w3.org/1999/xlink" x="0px" y="0px"
	 width="570" height="150" viewBox="125 218 570 150" xml:space="preserve"
	>
<style type="text/css">
	.st0{fill:#59636A;}
	.st1{fill:#3569B1;}
	.st2{fill:#C5A44E;}
	.st3{fill:#354248;}
</style>
<g>
	<g>
		<g>
			<path class="st0" d="M175.3,278.2v78.9h-22.6v-56.3L175.3,278.2z"/>
		</g>
		<g>
			<path class="st0" d="M273,279.1l-15.4,15.4l-36.6-36.6L141.8,337l-16-16l94.6-94.6L273,279.1z"/>
		</g>
		<g>
			<path class="st1" d="M206.1,304.5l15.4-15.4l36.6,36.6l79.1-79.1l16,16l-94.6,94.6L206.1,304.5z"/>
		</g>
		<g>
			<path class="st2" d="M175.3,249v11.3l-22.6,22.6V249H175.3z"/>
		</g>
	</g>
</g>
<g>
	<path class="st3" d="M393.9,226.8h13.3c10,0,13.2,6,13.2,14.8c0,7.9-3.6,14.6-13.1,14.6h-8.2v26.4h-5.2V226.8z M405.8,252.2
		c6.7,0,9.5-2.7,9.5-10.7c0-8.5-2.1-10.9-9.4-10.9h-6.7v21.5H405.8z"/>
	<path class="st3" d="M426.4,266.1V243c0-10.1,3.5-16.7,14.4-16.7c10.7,0,14.2,6.7,14.2,16.7v23.2c0,10-3.3,17.1-14.2,17.1
		C429.7,283.2,426.4,276.2,426.4,266.1z M449.7,267.2V242c0-7.1-1.7-11.6-8.9-11.6c-7.4,0-9.1,4.5-9.1,11.6v25.3
		c0,7,1.7,11.8,9.1,11.8C448,279,449.7,274.3,449.7,267.2z"/>
	<path class="st3" d="M460.1,278.6l18.6-47.9h-17.1v-3.9h22.8v2.8l-19.1,49.1h19.1v3.9h-24.3V278.6z"/>
	<path class="st3" d="M500.3,264l-12.6-37.2h5.1l10,31l9.6-31h5.2L505.4,264v18.5h-5.1V264z"/>
	<path class="st3" d="M526.1,230.9h-10.5v-4.1h26v4.1h-10.3v51.7h-5.2V230.9z"/>
	<path class="st3" d="M552.2,264l-12.6-37.2h5.1l10,31l9.6-31h5.2L557.3,264v18.5h-5.1V264z"/>
	<path class="st3" d="M573.3,226.8h4.5l7.4,45.3l8.4-44.4h4.3l8.6,44.5l6.8-45.3h4.4l-9,55.7h-4.1l-8.9-46l-8.7,46h-4.3L573.3,226.8
		z"/>
	<path class="st3" d="M624.1,226.8h3.8l17.8,43.3v-43.3h4.5v55.7h-3.7l-17.8-43.8v43.8h-4.5V226.8z"/>
	<path class="st3" d="M658.3,226.8h5.2v55.7h-5.2V226.8z"/>
	<path class="st3" d="M671.6,226.8h20.2v4.1h-14.9v20.9H689v3.9h-12.1v23h15v3.9h-20.3V226.8z"/>
	<path class="st3" d="M391.3,352.9L410,305h-17.1v-3.9h22.8v2.8l-19.1,49.1h19.1v3.9h-24.3V352.9z"/>
	<path class="st3" d="M421.8,301.1h12c10.2,0,13.6,5.5,13.6,13.9c0,5.4-1.7,10.7-7.1,11.8c6.5,1.8,8.4,7.9,8.4,14
		c0,8.9-2.7,16.1-13.1,16.1h-13.8V301.1z M434.6,325.1c6.3,0,8-4,8-10.1c0-6.7-2.2-9.8-10.7-9.8h-5v20H434.6z M434.6,352.9
		c7.2,0,9.1-3.8,9.1-12.2c0-6.7-2.2-11.6-8.9-11.6h-7.6v23.7H434.6z"/>
	<path class="st3" d="M455.4,341.6v-40.5h5.1v40.7c0,6.5,1.7,11.6,9.2,11.6c7.2,0,9.2-5,9.2-11.6v-40.7h5v40.5
		c0,9.3-3.2,15.9-14.2,15.9C458.2,357.5,455.4,350.9,455.4,341.6z"/>
	<path class="st3" d="M491.5,301.1h12.1c11.6,0,15.1,6.5,15.1,16.4v22.2c0,10.4-3.5,17.2-14.7,17.2h-12.6V301.1z M503.8,352.9
		c8.8,0,9.6-6,9.6-14.1V318c0-8.3-1.5-12.9-9.8-12.9h-6.8v47.7H503.8z"/>
	<path class="st3" d="M525.6,340.4v-23.1c0-10.1,3.5-16.7,14.4-16.7c10.7,0,14.2,6.7,14.2,16.7v23.2c0,10-3.3,17.1-14.2,17.1
		C528.9,357.5,525.6,350.5,525.6,340.4z M548.9,341.5v-25.2c0-7.1-1.7-11.6-8.9-11.6c-7.4,0-9.1,4.5-9.1,11.6v25.2
		c0,7,1.7,11.8,9.1,11.8C547.3,353.3,548.9,348.6,548.9,341.5z"/>
	<path class="st3" d="M559.4,301.1h4.5l7.4,45.3l8.4-44.4h4.3l8.6,44.5l6.8-45.3h4.4l-9,55.7h-4.1l-8.9-46l-8.7,46h-4.3L559.4,301.1
		z"/>
	<path class="st3" d="M616.1,301.1h5.5l11.8,55.7h-5.2l-2.8-14.9h-13.3l-2.8,14.9h-5.1L616.1,301.1z M624.8,338.1l-5.9-30.1
		l-5.9,30.1H624.8z"/>
	<path class="st3" d="M639.9,301.1h3.8l17.8,43.3v-43.3h4.5v55.7h-3.7l-17.8-43.8v43.8h-4.5V301.1z"/>
	<path class="st3" d="M674.1,301.1h5.2v55.7h-5.2V301.1z"/>
</g>
</svg>
