<svg xmlns="http://www.w3.org/2000/svg" xml:space="preserve" id="Warstwa_1" width="310" height="71.9" x="0" y="0" style="enable-background:new 0 0 310 71.9" version="1.0"><style>.st0{fill:#fff}</style><path d="M27.1 28.5v43.2H14.7V40.9l12.4-12.4z" class="st0"/><path d="m80.6 29-8.5 8.5-20-20.1L8.8 60.7 0 51.9 51.8.1 80.6 29z" class="st0"/><path d="m44 42.9 8.5-8.5 20.1 20.1 43.3-43.3 8.8 8.8-51.9 51.7L44 42.9z" style="fill:#3569b1"/><path d="M27.1 12.5v6.2L14.7 31V12.5h12.4z" style="fill:#c5a44e"/><path d="M146.8.3h7.3c5.5 0 7.2 3.3 7.2 8.1 0 4.3-2 8-7.2 8h-4.5v14.4h-2.9V.3zm6.5 13.9c3.7 0 5.2-1.5 5.2-5.8 0-4.7-1.1-6-5.2-6h-3.7v11.8h3.7zM164.6 21.8V9.2c0-5.5 1.9-9.2 7.9-9.2 5.9 0 7.8 3.7 7.8 9.2v12.7c0 5.5-1.8 9.3-7.8 9.3-6.1 0-7.9-3.8-7.9-9.4zm12.8.7V8.6c0-3.9-.9-6.3-4.9-6.3-4.1 0-5 2.4-5 6.3v13.8c0 3.8.9 6.4 5 6.4 4 .1 4.9-2.5 4.9-6.3zM183.1 28.7l10.2-26.2h-9.4V.3h12.5v1.5l-10.5 26.9h10.5v2.1h-13.3v-2.1zM205.1 20.7 198.2.3h2.8l5.5 17 5.3-17h2.8l-6.7 20.4v10.1h-2.8V20.7z" class="st0"/><path d="M219.2 2.5h-5.8V.3h14.2v2.2H222v28.3h-2.9V2.5z" class="st0"/><path d="M233.5 20.7 226.6.3h2.8l5.5 17 5.3-17h2.8l-6.7 20.4v10.1h-2.8V20.7zM245.1.3h2.4l4 24.8L256.1.8h2.4l4.7 24.4L267 .3h2.4l-4.9 30.5h-2.2l-4.9-25.2-4.8 25.2h-2.3L245.1.3zM272.9.3h2.1l9.7 23.7V.3h2.5v30.5h-2l-9.8-24v24h-2.5V.3zM291.6.3h2.9v30.5h-2.9V.3zM298.9.3h11v2.2h-8.1V14h6.6v2.1h-6.6v12.6h8.2v2.1h-11.1V.3zM145.4 69.4l10.2-26.2h-9.4V41h12.5v1.5l-10.5 26.9h10.5v2.1h-13.3v-2.1zM162.1 41h6.6c5.6 0 7.5 3 7.5 7.6 0 2.9-.9 5.8-3.9 6.4 3.6 1 4.6 4.3 4.6 7.6 0 4.9-1.5 8.8-7.2 8.8h-7.5V41zm7 13.1c3.5 0 4.4-2.2 4.4-5.5 0-3.7-1.2-5.4-5.8-5.4H165v10.9h4.1zm0 15.3c4 0 5-2.1 5-6.7 0-3.7-1.2-6.3-4.9-6.3H165v13h4.1zM180.5 63.2V41h2.8v22.3c0 3.6.9 6.3 5 6.3 3.9 0 5-2.8 5-6.3V41h2.8v22.2c0 5.1-1.7 8.7-7.8 8.7-6.3 0-7.8-3.6-7.8-8.7zM200.3 41h6.6c6.3 0 8.3 3.6 8.3 9v12.1c0 5.7-1.9 9.4-8 9.4h-6.9V41zm6.7 28.4c4.8 0 5.3-3.3 5.3-7.7V50.3c0-4.6-.8-7-5.4-7h-3.7v26.2h3.8zM218.9 62.5V49.9c0-5.5 1.9-9.2 7.9-9.2 5.9 0 7.8 3.7 7.8 9.2v12.7c0 5.5-1.8 9.3-7.8 9.3s-7.9-3.8-7.9-9.4zm12.8.7V49.3c0-3.9-.9-6.3-4.9-6.3-4.1 0-5 2.4-5 6.3v13.8c0 3.8.9 6.4 5 6.4 4 .1 4.9-2.5 4.9-6.3zM237.4 41h2.4l4 24.8 4.6-24.3h2.4l4.7 24.4 3.7-24.8h2.4l-4.9 30.5h-2.2l-4.9-25.2-4.8 25.2h-2.3L237.4 41zM268.5 41h3l6.5 30.5h-2.8l-1.5-8.2h-7.3l-1.5 8.2h-2.8l6.4-30.5zm4.8 20.3-3.2-16.5-3.2 16.5h6.4zM281.6 41h2.1l9.7 23.7V41h2.5v30.5h-2l-9.8-24v24h-2.5V41zM300.3 41h2.9v30.5h-2.9V41z" class="st0"/></svg>