<svg width="214" height="37" viewBox="0 0 214 37" fill="none" xmlns="http://www.w3.org/2000/svg">
<g clip-path="url(#clip0_4330_1554)">
<path d="M55.4018 23.9364C56.2466 23.9364 56.996 23.8081 57.6498 23.5513C58.3038 23.2946 58.9122 22.889 59.4756 22.3346L61.9804 25.1071C60.4514 26.8937 58.2182 27.7872 55.2811 27.7872C53.4502 27.7872 51.8307 27.4226 50.4225 26.6935C49.0142 25.9644 47.9278 24.953 47.1633 23.6592C46.3988 22.3653 46.0166 20.8969 46.0166 19.254C46.0166 17.6314 46.3938 16.1681 47.1482 14.864C47.9027 13.5599 48.9387 12.5433 50.2566 11.8142C51.5742 11.0851 53.058 10.7205 54.7076 10.7205C56.2566 10.7205 57.6651 11.0543 58.9325 11.7219C60.1999 12.3892 61.2109 13.3545 61.9653 14.6176C62.7197 15.8806 63.0969 17.3746 63.0969 19.0998L51.0863 21.4718C51.4284 22.2935 51.9665 22.9095 52.7008 23.3204C53.4352 23.731 54.3354 23.9364 55.4018 23.9364ZM54.7076 14.3558C53.5207 14.3558 52.555 14.7459 51.8106 15.5263C51.1548 16.2137 50.7724 17.1323 50.663 18.2817C50.7506 18.2649 50.7377 18.2675 50.8643 18.2428L57.9198 16.8555C58.1643 16.806 58.2248 16.7933 58.4049 16.759C58.1558 16.0952 57.7483 15.5508 57.1822 15.126C56.4981 14.6125 55.6734 14.3558 54.7076 14.3558Z" fill="#333333"/>
<path d="M74.3041 27.5408L70.743 22.4577L67.0614 27.5408H61.9313L68.178 19.1922L62.1426 10.967H67.4236L70.8637 15.8036L74.3944 10.967H79.4039L73.3685 19.0691L79.6453 27.5408H74.3041Z" fill="#333333"/>
<path d="M88.6243 26.1856C88.6264 26.4713 88.6214 26.8383 88.6243 27.3995C88.488 27.4456 88.3468 27.4875 88.2006 27.5252C87.5267 27.6999 86.8275 27.7872 86.1032 27.7872C84.1518 27.7872 82.653 27.284 81.6069 26.2777C80.5606 25.2713 80.0376 23.7926 80.0376 21.8417V8.61707L84.7454 7.65591V11.3368H88.759V15.0335H84.7454V21.7801C84.7454 22.4782 84.9163 23.0174 85.2584 23.3973C85.6002 23.7773 86.0931 23.9672 86.7371 23.9672C87.4612 23.9672 88.0608 23.7906 88.6243 23.38V26.1856Z" fill="#333333"/>
<path d="M94.8734 13.4008C95.4368 12.5999 96.1963 11.9939 97.1518 11.5833C98.1075 11.1725 99.209 10.967 100.456 10.967V15.4033C99.9331 15.3622 99.5812 15.3417 99.4 15.3417C98.052 15.3417 96.9959 15.7268 96.2314 16.4969C95.467 17.2671 95.0847 18.4223 95.0847 19.9626V27.7872H90.377V11.2135H94.8734V13.4008Z" fill="#333333"/>
<path d="M118.14 10.967V27.5407H113.644V25.6308C112.477 27.0683 110.787 27.7872 108.574 27.7872C107.045 27.7872 105.662 27.4381 104.424 26.7398C103.187 26.0414 102.217 25.0454 101.512 23.7515C100.808 22.4577 100.456 20.9584 100.456 19.254C100.456 17.5493 100.808 16.05 101.512 14.7562C102.217 13.4623 103.187 12.4662 104.424 11.7681C105.662 11.0698 107.045 10.7205 108.574 10.7205C110.646 10.7205 112.266 11.3881 113.432 12.723V10.967H118.14ZM109.389 23.8441C110.576 23.8441 111.561 23.428 112.346 22.5963C113.131 21.7646 113.523 20.6504 113.523 19.254C113.523 17.8573 113.131 16.7431 112.346 15.9114C111.561 15.0797 110.576 14.6638 109.389 14.6638C108.182 14.6638 107.186 15.0797 106.401 15.9114C105.617 16.7431 105.224 17.8573 105.224 19.254C105.224 20.6504 105.617 21.7646 106.401 22.5963C107.186 23.428 108.182 23.8441 109.389 23.8441Z" fill="#333333"/>
<path d="M127.515 27.7748C126.002 27.7748 124.631 27.4235 123.401 26.721C122.172 26.0186 121.201 25.0308 120.489 23.7577C119.777 22.4846 119.421 20.9814 119.421 19.2485C119.421 17.5157 119.777 16.0127 120.489 14.7396C121.201 13.4665 122.172 12.4807 123.401 11.7826C124.631 11.0842 126.002 10.7352 127.515 10.7352C128.891 10.7352 130.09 11.0421 131.112 11.6562C132.135 12.2702 132.931 13.2035 133.501 14.4558C134.072 15.7084 134.357 17.3059 134.357 19.2485C134.357 21.1868 134.084 22.7873 133.538 24.0502C132.992 25.3132 132.21 26.2495 131.191 26.8596C130.172 27.4696 128.947 27.7748 127.515 27.7748ZM128.325 23.8397C129.107 23.8397 129.809 23.6577 130.43 23.2933C131.051 22.9292 131.546 22.3994 131.915 21.7041C132.284 21.0091 132.468 20.1905 132.468 19.2485C132.468 18.2863 132.284 17.4646 131.915 16.7837C131.546 16.1027 131.051 15.5801 130.43 15.2159C129.809 14.8518 129.107 14.6695 128.325 14.6695C127.543 14.6695 126.842 14.8518 126.221 15.2159C125.6 15.5801 125.105 16.1027 124.736 16.7837C124.368 17.4646 124.183 18.2863 124.183 19.2485C124.183 20.1905 124.368 21.0091 124.736 21.7041C125.105 22.3994 125.6 22.9292 126.221 23.2933C126.842 23.6577 127.543 23.8397 128.325 23.8397ZM132.606 27.5407V24.1458L132.685 19.2298L132.384 14.3144V5.71415L137.091 4.75146V27.5407H132.606Z" fill="#333333"/>
<path d="M147.126 27.7747C145.407 27.7747 143.878 27.4091 142.54 26.678C141.202 25.9467 140.148 24.9384 139.377 23.6527C138.607 22.3671 138.222 20.898 138.222 19.2453C138.222 17.5801 138.608 16.1088 139.381 14.8309C140.153 13.553 141.206 12.551 142.539 11.8247C143.872 11.0982 145.401 10.7352 147.126 10.7352C148.852 10.7352 150.386 11.0978 151.73 11.8234C153.074 12.549 154.126 13.5499 154.888 14.8263C155.65 16.1027 156.031 17.5757 156.031 19.2457C156.031 20.9026 155.651 22.3726 154.891 23.6561C154.13 24.9395 153.076 25.9467 151.728 26.678C150.38 27.4091 148.846 27.7747 147.126 27.7747ZM147.126 23.8397C147.921 23.8397 148.628 23.6577 149.249 23.2933C149.87 22.9292 150.362 22.3994 150.725 21.7041C151.088 21.0091 151.269 20.1896 151.269 19.2461C151.269 18.2854 151.088 17.4646 150.725 16.7837C150.362 16.1027 149.87 15.5801 149.249 15.2159C148.628 14.8518 147.924 14.6695 147.136 14.6695C146.347 14.6695 145.643 14.8518 145.022 15.2159C144.401 15.5801 143.906 16.1027 143.537 16.7837C143.169 17.4646 142.984 18.2854 142.984 19.2461C142.984 20.1896 143.169 21.0091 143.537 21.7041C143.906 22.3994 144.401 22.9292 145.021 23.2933C145.641 23.6577 146.343 23.8397 147.126 23.8397Z" fill="#333333"/>
<path d="M177.871 10.7352C179.155 10.7352 180.294 10.9939 181.29 11.5112C182.286 12.0288 183.068 12.8265 183.635 13.9044C184.202 14.9826 184.486 16.3674 184.486 18.0592V27.5407H179.778V18.7774C179.778 17.445 179.507 16.462 178.965 15.8285C178.422 15.1948 177.667 14.878 176.699 14.878C176.005 14.878 175.388 15.0365 174.848 15.3535C174.308 15.6702 173.887 16.1454 173.587 16.7792C173.286 17.4127 173.136 18.2271 173.136 19.2225V27.5407H168.428V18.7774C168.428 17.445 168.161 16.462 167.627 15.8285C167.092 15.1948 166.333 14.878 165.349 14.878C164.656 14.878 164.039 15.0365 163.498 15.3535C162.958 15.6702 162.537 16.1454 162.237 16.7792C161.937 17.4127 161.786 18.2271 161.786 19.2225V27.5407H157.079V10.9685H161.564V15.4892L160.709 14.171C161.273 13.0463 162.074 12.1923 163.114 11.6095C164.154 11.0266 165.336 10.7352 166.66 10.7352C168.145 10.7352 169.446 11.117 170.562 11.881C171.679 12.6448 172.422 13.8212 172.792 15.4104L171.129 14.9415C171.672 13.6566 172.539 12.6344 173.733 11.8747C174.926 11.115 176.305 10.7352 177.871 10.7352Z" fill="#333333"/>
<path d="M188.402 27.6857C187.961 27.6857 187.581 27.525 187.26 27.2035C186.94 26.8821 186.779 26.4851 186.779 26.012C186.779 25.5182 186.94 25.1157 187.26 24.8046C187.581 24.4935 187.961 24.3379 188.402 24.3379C188.84 24.3379 189.217 24.4935 189.533 24.8046C189.849 25.1157 190.007 25.5182 190.007 26.012C190.007 26.4851 189.849 26.8821 189.533 27.2035C189.217 27.525 188.84 27.6857 188.402 27.6857Z" fill="#333333"/>
<path d="M200.342 27.6857C198.982 27.6857 197.747 27.3648 196.637 26.7234C195.528 26.0818 194.646 25.1467 193.992 23.9174C193.339 22.6882 193.012 21.2001 193.012 19.4533C193.012 17.6857 193.333 16.1902 193.976 14.9669C194.618 13.7435 195.494 12.811 196.603 12.1696C197.713 11.528 198.959 11.2074 200.342 11.2074C201.862 11.2074 203.217 11.5542 204.41 12.248C205.602 12.9417 206.542 13.9061 207.229 15.1413C207.915 16.3764 208.257 17.8137 208.257 19.4533C208.257 21.0837 207.915 22.5164 207.229 23.7515C206.542 24.9867 205.602 25.9511 204.41 26.6448C203.217 27.3388 201.862 27.6857 200.342 27.6857ZM192.169 33.517V11.3521H194.226V16.2277L194.009 19.4841L194.311 22.7404V33.517H192.169ZM200.188 25.7559C201.311 25.7559 202.318 25.4951 203.208 24.9736C204.099 24.4518 204.804 23.7136 205.322 22.7585C205.84 21.8037 206.098 20.7017 206.098 19.4533C206.098 18.1841 205.84 17.0771 205.322 16.1323C204.804 15.1878 204.099 14.4523 203.208 13.9262C202.318 13.4001 201.311 13.1371 200.188 13.1371C199.065 13.1371 198.059 13.4001 197.168 13.9262C196.277 14.4523 195.572 15.1878 195.054 16.1323C194.536 17.0771 194.277 18.1841 194.277 19.4533C194.277 20.7017 194.536 21.8037 195.054 22.7585C195.572 23.7136 196.277 24.4518 197.168 24.9736C198.059 25.4951 199.065 25.7559 200.188 25.7559Z" fill="#333333"/>
<path d="M213.052 4.68269H210.91V27.5407H213.052V4.68269Z" fill="#333333"/>
<path fill-rule="evenodd" clip-rule="evenodd" d="M36.6411 9.50782C36.6411 4.58184 32.6417 0.582596 27.7161 0.582596H9.86473C4.93914 0.582596 0.939697 4.58184 0.939697 9.50782V27.3583C0.939697 32.2842 4.93914 36.2835 9.86473 36.2835H27.7161C32.6417 36.2835 36.6411 32.2842 36.6411 27.3583V9.50782Z" fill="#E60022"/>
<path d="M14.2323 26.4239C14.7458 26.4239 15.1901 26.3499 15.5654 26.2021C15.9405 26.0542 16.3191 25.8124 16.7008 25.4764L18.6558 27.573C17.6422 28.7557 16.1282 29.347 14.1139 29.347C12.8632 29.347 11.7638 29.1051 10.816 28.6213C9.86803 28.1374 9.1342 27.4655 8.61408 26.6053C8.0941 25.7452 7.83411 24.7708 7.83411 23.6822C7.83411 22.607 8.09081 21.6428 8.60422 20.7894C9.11763 19.936 9.82532 19.2673 10.7271 18.7835C11.629 18.2996 12.6394 18.0578 13.7585 18.0578C14.7984 18.0578 15.7497 18.2762 16.6119 18.7129C17.4743 19.1497 18.1621 19.7881 18.6756 20.6281C19.1891 21.4681 19.4458 22.4659 19.4458 23.6217L11.8034 25.1135C12.2115 25.9871 13.0212 26.4239 14.2323 26.4239ZM13.7782 20.7792C13.133 20.7792 12.6065 20.9842 12.1984 21.3941C11.7902 21.8041 11.5598 22.3921 11.5071 23.158L15.8517 22.2912C15.7201 21.8342 15.47 21.4681 15.1013 21.1925C14.7327 20.917 14.2916 20.7792 13.7782 20.7792Z" fill="white"/>
<path d="M30.4128 17.3062V29.0935H26.9149V28.0283C26.2319 28.8569 25.2078 29.2711 23.8421 29.2711C22.8886 29.2711 22.0189 29.0442 21.2329 28.5904C20.4471 28.1367 19.8254 27.4889 19.368 26.6472C18.9106 25.8054 18.682 24.8321 18.682 23.7273C18.682 22.6226 18.9106 21.6525 19.368 20.8173C19.8254 19.9821 20.4471 19.341 21.2329 18.8938C22.0189 18.4466 22.8886 18.223 23.8421 18.223C25.0917 18.223 26.058 18.5913 26.741 19.3279V15.0747L30.4128 17.3062ZM24.615 26.2921C25.2463 26.2921 25.7682 26.0652 26.1805 25.6114C26.5928 25.1577 26.7988 24.5296 26.7988 23.7273C26.7988 22.9382 26.596 22.32 26.1901 21.8728C25.7843 21.4256 25.2592 21.202 24.615 21.202C23.9708 21.202 23.4426 21.4256 23.0304 21.8728C22.618 22.32 22.4119 22.9382 22.4119 23.7273C22.4119 24.5296 22.618 25.1577 23.0304 25.6114C23.4426 26.0652 23.9708 26.2921 24.615 26.2921Z" fill="white"/>
<path fill-rule="evenodd" clip-rule="evenodd" d="M20.9478 9.85145L19.1056 6.66666L7.82287 13.1951L7.82276 17.4434L20.9478 9.85145Z" fill="white"/>
<path fill-rule="evenodd" clip-rule="evenodd" d="M19.113 6.66601L17.2731 9.85213L30.4139 17.4408L30.4014 13.185L19.113 6.66601Z" fill="white"/>
</g>
<defs>
<clipPath id="clip0_4330_1554">
<rect width="212.333" height="36" fill="white" transform="translate(0.938477 0.5)"/>
</clipPath>
</defs>
</svg>
